<mxfile host="app.diagrams.net" agent="Mozilla/5.0 (Windows NT 10.0; Win64; x64) AppleWebKit/537.36 (KHTML, like Gecko) Chrome/134.0.0.0 Safari/537.36" version="26.1.1">
  <diagram name="Pagina-1" id="EVxXmYCX545WKcWi7Er9">
    <mxGraphModel dx="2314" dy="1132" grid="1" gridSize="10" guides="1" tooltips="1" connect="1" arrows="1" fold="1" page="1" pageScale="1" pageWidth="827" pageHeight="1169" math="0" shadow="0">
      <root>
        <mxCell id="0" />
        <mxCell id="1" parent="0" />
        <mxCell id="2" value="User Interface node" style="whiteSpace=wrap;strokeWidth=2;" parent="1" vertex="1">
          <mxGeometry x="328" y="340" width="145" height="54" as="geometry" />
        </mxCell>
        <mxCell id="6" value="User input &amp; feedback" style="curved=1;startArrow=none;endArrow=block;exitX=0.5;exitY=1;exitDx=0;exitDy=0;" parent="1" source="2" target="Km91m2pjaA0zXFwZ5zvm-9" edge="1">
          <mxGeometry relative="1" as="geometry">
            <Array as="points" />
            <mxPoint x="398.6525432638166" y="478.3474567361834" as="targetPoint" />
          </mxGeometry>
        </mxCell>
        <mxCell id="Km91m2pjaA0zXFwZ5zvm-9" value="Main control node" style="whiteSpace=wrap;strokeWidth=2;" vertex="1" parent="1">
          <mxGeometry x="328" y="480" width="145" height="54" as="geometry" />
        </mxCell>
        <mxCell id="Km91m2pjaA0zXFwZ5zvm-13" value="" style="endArrow=classic;html=1;rounded=0;entryX=0;entryY=0.25;entryDx=0;entryDy=0;" edge="1" parent="1" target="Km91m2pjaA0zXFwZ5zvm-9">
          <mxGeometry width="50" height="50" relative="1" as="geometry">
            <mxPoint x="260" y="494.5408163265306" as="sourcePoint" />
            <mxPoint x="290" y="470" as="targetPoint" />
          </mxGeometry>
        </mxCell>
        <mxCell id="Km91m2pjaA0zXFwZ5zvm-14" value="" style="endArrow=classic;html=1;rounded=0;entryX=0;entryY=0.25;entryDx=0;entryDy=0;" edge="1" parent="1">
          <mxGeometry width="50" height="50" relative="1" as="geometry">
            <mxPoint x="250" y="520" as="sourcePoint" />
            <mxPoint x="328" y="520" as="targetPoint" />
          </mxGeometry>
        </mxCell>
        <mxCell id="Km91m2pjaA0zXFwZ5zvm-15" value="" style="endArrow=classic;html=1;rounded=0;entryX=1;entryY=0.25;entryDx=0;entryDy=0;" edge="1" parent="1" target="Km91m2pjaA0zXFwZ5zvm-9">
          <mxGeometry width="50" height="50" relative="1" as="geometry">
            <mxPoint x="570" y="494" as="sourcePoint" />
            <mxPoint x="588" y="514" as="targetPoint" />
          </mxGeometry>
        </mxCell>
        <mxCell id="Km91m2pjaA0zXFwZ5zvm-16" value="" style="endArrow=classic;html=1;rounded=0;entryX=1;entryY=0.25;entryDx=0;entryDy=0;" edge="1" parent="1">
          <mxGeometry width="50" height="50" relative="1" as="geometry">
            <mxPoint x="570" y="520" as="sourcePoint" />
            <mxPoint x="473" y="520" as="targetPoint" />
          </mxGeometry>
        </mxCell>
        <mxCell id="Km91m2pjaA0zXFwZ5zvm-17" value="Actuator controller node" style="whiteSpace=wrap;strokeWidth=2;" vertex="1" parent="1">
          <mxGeometry x="328" y="585" width="145" height="54" as="geometry" />
        </mxCell>
        <mxCell id="Km91m2pjaA0zXFwZ5zvm-18" value="" style="endArrow=classic;html=1;rounded=0;exitX=0.5;exitY=1;exitDx=0;exitDy=0;" edge="1" parent="1" source="Km91m2pjaA0zXFwZ5zvm-9" target="Km91m2pjaA0zXFwZ5zvm-17">
          <mxGeometry width="50" height="50" relative="1" as="geometry">
            <mxPoint x="520" y="690" as="sourcePoint" />
            <mxPoint x="570" y="640" as="targetPoint" />
          </mxGeometry>
        </mxCell>
        <mxCell id="Km91m2pjaA0zXFwZ5zvm-21" value="" style="endArrow=classic;html=1;rounded=0;exitX=0.5;exitY=1;exitDx=0;exitDy=0;" edge="1" parent="1" source="Km91m2pjaA0zXFwZ5zvm-17">
          <mxGeometry width="50" height="50" relative="1" as="geometry">
            <mxPoint x="520" y="690" as="sourcePoint" />
            <mxPoint x="400" y="710" as="targetPoint" />
          </mxGeometry>
        </mxCell>
        <mxCell id="Km91m2pjaA0zXFwZ5zvm-22" value="Robotic actuators" style="text;html=1;align=center;verticalAlign=middle;whiteSpace=wrap;rounded=0;" vertex="1" parent="1">
          <mxGeometry x="370.5" y="710" width="60" height="30" as="geometry" />
        </mxCell>
        <mxCell id="Km91m2pjaA0zXFwZ5zvm-25" value="Force sensor node" style="text;html=1;align=center;verticalAlign=middle;whiteSpace=wrap;rounded=0;" vertex="1" parent="1">
          <mxGeometry x="570" y="510" width="170" height="30" as="geometry" />
        </mxCell>
        <mxCell id="Km91m2pjaA0zXFwZ5zvm-26" value="Safety monitor node (real-time safety checks)" style="text;html=1;align=center;verticalAlign=middle;whiteSpace=wrap;rounded=0;" vertex="1" parent="1">
          <mxGeometry x="580" y="480" width="170" height="30" as="geometry" />
        </mxCell>
        <mxCell id="Km91m2pjaA0zXFwZ5zvm-27" value="EMG sensor node" style="text;html=1;align=center;verticalAlign=middle;whiteSpace=wrap;rounded=0;" vertex="1" parent="1">
          <mxGeometry x="120" y="474" width="170" height="30" as="geometry" />
        </mxCell>
        <mxCell id="Km91m2pjaA0zXFwZ5zvm-28" value="IMU sensor node" style="text;html=1;align=center;verticalAlign=middle;whiteSpace=wrap;rounded=0;" vertex="1" parent="1">
          <mxGeometry x="120" y="504" width="170" height="30" as="geometry" />
        </mxCell>
      </root>
    </mxGraphModel>
  </diagram>
</mxfile>
